<?xml version="1.0" encoding="UTF-8"?>
<svg xmlns="http://www.w3.org/2000/svg" xmlns:xlink="http://www.w3.org/1999/xlink" width="60pt" height="60pt" viewBox="0 0 60 60" version="1.1">
<g id="surface1">
<path style=" stroke:none;fill-rule:nonzero;fill:rgb(90.196078%,91.372549%,92.941176%);fill-opacity:1;" d="M 60 13.75 L 60 7.5 C 60 6.117188 58.882812 5 57.5 5 L 10 5 C 8.621094 5 7.5 6.117188 7.5 7.5 L 7.5 13.75 Z M 60 13.75 "/>
<path style=" stroke:none;fill-rule:nonzero;fill:rgb(96.078431%,96.862745%,98.039216%);fill-opacity:1;" d="M 60 47.5 L 7.5 47.5 L 7.5 10 L 60 10 Z M 60 47.5 "/>
<path style=" stroke:none;fill-rule:nonzero;fill:rgb(92.941176%,33.333333%,39.215686%);fill-opacity:1;" d="M 12.5 7.5 C 12.5 8.1875 11.941406 8.75 11.25 8.75 C 10.558594 8.75 10 8.1875 10 7.5 C 10 6.808594 10.558594 6.25 11.25 6.25 C 11.941406 6.25 12.5 6.808594 12.5 7.5 Z M 12.5 7.5 "/>
<path style=" stroke:none;fill-rule:nonzero;fill:rgb(100%,80.784314%,32.941176%);fill-opacity:1;" d="M 16.25 7.5 C 16.25 8.1875 15.691406 8.75 15 8.75 C 14.308594 8.75 13.75 8.1875 13.75 7.5 C 13.75 6.808594 14.308594 6.25 15 6.25 C 15.691406 6.25 16.25 6.808594 16.25 7.5 Z M 16.25 7.5 "/>
<path style=" stroke:none;fill-rule:nonzero;fill:rgb(62.745098%,83.137255%,40.784314%);fill-opacity:1;" d="M 20 7.5 C 20 8.1875 19.441406 8.75 18.75 8.75 C 18.058594 8.75 17.5 8.1875 17.5 7.5 C 17.5 6.808594 18.058594 6.25 18.75 6.25 C 19.441406 6.25 20 6.808594 20 7.5 Z M 20 7.5 "/>
<path style=" stroke:none;fill-rule:nonzero;fill:rgb(28.235294%,81.176471%,67.843137%);fill-opacity:1;" d="M 35 35 L 55 35 L 55 47.5 L 35 47.5 Z M 35 35 "/>
<path style=" stroke:none;fill-rule:nonzero;fill:rgb(36.470588%,61.176471%,92.54902%);fill-opacity:1;" d="M 12.5 15 L 55 15 L 55 32.5 L 12.5 32.5 Z M 12.5 15 "/>
<path style=" stroke:none;fill-rule:nonzero;fill:rgb(26.27451%,29.019608%,32.941176%);fill-opacity:1;" d="M 46.25 22.5 L 21.25 22.5 C 20.5625 22.5 20 23.058594 20 23.75 C 20 24.441406 20.5625 25 21.25 25 L 46.25 25 C 46.941406 25 47.5 24.441406 47.5 23.75 C 47.5 23.058594 46.941406 22.5 46.25 22.5 Z M 46.25 22.5 "/>
<path style=" stroke:none;fill-rule:nonzero;fill:rgb(26.27451%,29.019608%,32.941176%);fill-opacity:1;" d="M 42.5 41.40625 L 0 41.40625 L 0 27.5 L 7.5 22.5 L 35 22.5 L 42.5 27.5 Z M 42.5 41.40625 "/>
<path style=" stroke:none;fill-rule:nonzero;fill:rgb(39.607843%,42.745098%,47.058824%);fill-opacity:1;" d="M 0 27.5 L 42.5 27.5 L 42.5 42.5 L 0 42.5 Z M 0 27.5 "/>
<path style=" stroke:none;fill-rule:nonzero;fill:rgb(62.745098%,83.137255%,40.784314%);fill-opacity:1;" d="M 37.5 33.75 C 37.5 35.128906 36.382812 36.25 35 36.25 C 33.621094 36.25 32.5 35.128906 32.5 33.75 C 32.5 32.371094 33.621094 31.25 35 31.25 C 36.382812 31.25 37.5 32.371094 37.5 33.75 Z M 37.5 33.75 "/>
<path style=" stroke:none;fill-rule:nonzero;fill:rgb(26.27451%,29.019608%,32.941176%);fill-opacity:1;" d="M 9.636719 31.617188 C 9.144531 31.125 8.355469 31.125 7.867188 31.617188 L 5.367188 34.117188 C 4.878906 34.601562 4.878906 35.394531 5.367188 35.882812 C 5.609375 36.125 5.929688 36.25 6.25 36.25 C 6.570312 36.25 6.890625 36.125 7.132812 35.882812 L 9.636719 33.382812 C 10.121094 32.894531 10.121094 32.101562 9.636719 31.617188 Z M 9.636719 31.617188 "/>
<path style=" stroke:none;fill-rule:nonzero;fill:rgb(26.27451%,29.019608%,32.941176%);fill-opacity:1;" d="M 14.632812 31.617188 C 14.148438 31.125 13.355469 31.125 12.867188 31.617188 L 10.367188 34.117188 C 9.878906 34.601562 9.878906 35.394531 10.367188 35.886719 C 10.609375 36.125 10.929688 36.25 11.25 36.25 C 11.570312 36.25 11.890625 36.125 12.132812 35.886719 L 14.632812 33.382812 C 15.121094 32.894531 15.121094 32.101562 14.632812 31.617188 Z M 14.632812 31.617188 "/>
<path style=" stroke:none;fill-rule:nonzero;fill:rgb(26.27451%,29.019608%,32.941176%);fill-opacity:1;" d="M 19.632812 31.617188 C 19.144531 31.125 18.355469 31.125 17.867188 31.617188 L 15.367188 34.117188 C 14.878906 34.601562 14.878906 35.394531 15.367188 35.882812 C 15.609375 36.125 15.929688 36.25 16.25 36.25 C 16.570312 36.25 16.890625 36.125 17.136719 35.882812 L 19.632812 33.382812 C 20.125 32.894531 20.125 32.101562 19.632812 31.617188 Z M 19.632812 31.617188 "/>
<path style=" stroke:none;fill-rule:nonzero;fill:rgb(39.607843%,42.745098%,47.058824%);fill-opacity:1;" d="M 0 40 L 42.5 40 L 42.5 55 L 0 55 Z M 0 40 "/>
<path style=" stroke:none;fill-rule:nonzero;fill:rgb(26.27451%,29.019608%,32.941176%);fill-opacity:1;" d="M 0 38.75 L 42.5 38.75 L 42.5 41.25 L 0 41.25 Z M 0 38.75 "/>
<path style=" stroke:none;fill-rule:nonzero;fill:rgb(62.745098%,83.137255%,40.784314%);fill-opacity:1;" d="M 37.5 48.75 C 37.5 50.128906 36.382812 51.25 35 51.25 C 33.621094 51.25 32.5 50.128906 32.5 48.75 C 32.5 47.371094 33.621094 46.25 35 46.25 C 36.382812 46.25 37.5 47.371094 37.5 48.75 Z M 37.5 48.75 "/>
<path style=" stroke:none;fill-rule:nonzero;fill:rgb(26.27451%,29.019608%,32.941176%);fill-opacity:1;" d="M 9.636719 46.613281 C 9.144531 46.128906 8.355469 46.128906 7.867188 46.613281 L 5.367188 49.117188 C 4.878906 49.601562 4.878906 50.394531 5.367188 50.886719 C 5.609375 51.125 5.929688 51.25 6.25 51.25 C 6.570312 51.25 6.890625 51.125 7.132812 50.886719 L 9.636719 48.382812 C 10.121094 47.898438 10.121094 47.101562 9.636719 46.613281 Z M 9.636719 46.613281 "/>
<path style=" stroke:none;fill-rule:nonzero;fill:rgb(26.27451%,29.019608%,32.941176%);fill-opacity:1;" d="M 14.632812 46.613281 C 14.148438 46.128906 13.355469 46.128906 12.867188 46.613281 L 10.367188 49.117188 C 9.878906 49.601562 9.878906 50.394531 10.367188 50.886719 C 10.609375 51.125 10.929688 51.25 11.25 51.25 C 11.570312 51.25 11.890625 51.125 12.132812 50.886719 L 14.632812 48.382812 C 15.121094 47.898438 15.121094 47.101562 14.632812 46.613281 Z M 14.632812 46.613281 "/>
<path style=" stroke:none;fill-rule:nonzero;fill:rgb(26.27451%,29.019608%,32.941176%);fill-opacity:1;" d="M 19.632812 46.613281 C 19.144531 46.128906 18.355469 46.128906 17.867188 46.613281 L 15.367188 49.117188 C 14.878906 49.601562 14.878906 50.394531 15.367188 50.886719 C 15.609375 51.125 15.929688 51.25 16.25 51.25 C 16.570312 51.25 16.890625 51.125 17.136719 50.886719 L 19.632812 48.382812 C 20.125 47.898438 20.125 47.101562 19.632812 46.613281 Z M 19.632812 46.613281 "/>
</g>
</svg>
