<?xml version="1.0" encoding="UTF-8"?>
<svg xmlns="http://www.w3.org/2000/svg" xmlns:xlink="http://www.w3.org/1999/xlink" width="60pt" height="60pt" viewBox="0 0 60 60" version="1.1">
<g id="surface1">
<path style=" stroke:none;fill-rule:nonzero;fill:rgb(44.313725%,80%,80.784314%);fill-opacity:1;" d="M 0 2.96875 L 0 10.878906 L 39.890625 13.515625 L 38.570312 2.96875 Z M 0 2.96875 "/>
<path style=" stroke:none;fill-rule:nonzero;fill:rgb(25.490196%,73.333333%,74.509804%);fill-opacity:1;" d="M 60 2.96875 L 38.570312 2.96875 L 38.570312 13.515625 L 60 10.878906 Z M 60 2.96875 "/>
<path style=" stroke:none;fill-rule:nonzero;fill:rgb(81.568627%,93.333333%,93.72549%);fill-opacity:1;" d="M 0 10.878906 L 60 10.878906 L 60 57.03125 L 0 57.03125 Z M 0 10.878906 "/>
<path style=" stroke:none;fill-rule:nonzero;fill:rgb(96.862745%,40.392157%,12.54902%);fill-opacity:1;" d="M 50.308594 6.921875 C 50.308594 7.46875 49.863281 7.914062 49.320312 7.914062 C 48.773438 7.914062 48.328125 7.46875 48.328125 6.921875 C 48.328125 6.375 48.773438 5.933594 49.320312 5.933594 C 49.863281 5.933594 50.308594 6.375 50.308594 6.921875 Z M 50.308594 6.921875 "/>
<path style=" stroke:none;fill-rule:nonzero;fill:rgb(81.568627%,93.333333%,93.72549%);fill-opacity:1;" d="M 44.902344 6.921875 C 44.902344 7.46875 44.457031 7.914062 43.910156 7.914062 C 43.367188 7.914062 42.921875 7.46875 42.921875 6.921875 C 42.921875 6.375 43.367188 5.933594 43.910156 5.933594 C 44.457031 5.933594 44.902344 6.375 44.902344 6.921875 Z M 44.902344 6.921875 "/>
<path style=" stroke:none;fill-rule:nonzero;fill:rgb(85.098039%,14.901961%,13.333333%);fill-opacity:1;" d="M 55.714844 6.921875 C 55.714844 7.46875 55.273438 7.914062 54.726562 7.914062 C 54.179688 7.914062 53.734375 7.46875 53.734375 6.921875 C 53.734375 6.375 54.179688 5.933594 54.726562 5.933594 C 55.273438 5.933594 55.714844 6.375 55.714844 6.921875 Z M 55.714844 6.921875 "/>
<path style=" stroke:none;fill-rule:nonzero;fill:rgb(12.54902%,66.666667%,69.019608%);fill-opacity:1;" d="M 46.230469 36.230469 L 46.230469 30.957031 L 41.3125 30.957031 C 41.019531 29.703125 40.523438 28.527344 39.859375 27.464844 L 43.34375 23.980469 L 39.613281 20.25 L 36.128906 23.734375 C 35.066406 23.070312 33.890625 22.574219 32.636719 22.28125 L 32.636719 17.363281 L 27.363281 17.363281 L 27.363281 22.28125 C 26.109375 22.574219 24.933594 23.070312 23.871094 23.734375 L 20.386719 20.25 L 16.65625 23.980469 L 20.140625 27.464844 C 19.476562 28.527344 18.980469 29.703125 18.6875 30.957031 L 13.769531 30.957031 L 13.769531 36.230469 L 18.6875 36.230469 C 18.980469 37.484375 19.476562 38.660156 20.140625 39.722656 L 16.65625 43.207031 L 20.386719 46.9375 L 23.871094 43.453125 C 24.933594 44.117188 26.109375 44.613281 27.363281 44.90625 L 27.363281 49.824219 L 32.636719 49.824219 L 32.636719 44.90625 C 33.890625 44.613281 35.066406 44.117188 36.128906 43.453125 L 39.613281 46.9375 L 43.34375 43.207031 L 39.859375 39.722656 C 40.523438 38.660156 41.019531 37.484375 41.3125 36.230469 Z M 30 39.921875 C 26.503906 39.921875 23.671875 37.089844 23.671875 33.59375 C 23.671875 30.097656 26.503906 27.265625 30 27.265625 C 33.496094 27.265625 36.328125 30.097656 36.328125 33.59375 C 36.328125 37.089844 33.496094 39.921875 30 39.921875 Z M 30 39.921875 "/>
</g>
</svg>
