<?xml version="1.0" encoding="UTF-8"?>
<svg xmlns="http://www.w3.org/2000/svg" xmlns:xlink="http://www.w3.org/1999/xlink" width="60pt" height="60pt" viewBox="0 0 60 60" version="1.1">
<g id="surface1">
<path style=" stroke:none;fill-rule:nonzero;fill:rgb(20%,20%,20%);fill-opacity:1;" d="M 18.75 41.882812 L 41.25 41.882812 L 41.25 54.578125 L 18.75 54.578125 Z M 18.75 41.882812 "/>
<path style=" stroke:none;fill-rule:nonzero;fill:rgb(0%,0%,0%);fill-opacity:1;" d="M 18.75 44.082031 L 32.136719 44.082031 L 18.75 50.867188 Z M 18.75 44.082031 "/>
<path style=" stroke:none;fill-rule:nonzero;fill:rgb(60%,60%,60%);fill-opacity:1;" d="M 44.234375 57.167969 L 15.765625 57.167969 C 14.664062 57.167969 13.761719 56.265625 13.761719 55.164062 C 13.761719 54.058594 14.664062 53.15625 15.765625 53.15625 L 44.230469 53.15625 C 45.335938 53.15625 46.238281 54.0625 46.238281 55.164062 C 46.238281 56.265625 45.335938 57.167969 44.234375 57.167969 Z M 44.234375 57.167969 "/>
<path style=" stroke:none;fill-rule:nonzero;fill:rgb(83.921569%,83.921569%,83.921569%);fill-opacity:1;" d="M 56.25 44.082031 L 3.75 44.082031 C 1.6875 44.082031 0 42.390625 0 40.332031 L 0 6.582031 C 0 4.515625 1.6875 2.832031 3.75 2.832031 L 56.25 2.832031 C 58.3125 2.832031 60 4.515625 60 6.582031 L 60 40.332031 C 60 42.390625 58.3125 44.082031 56.25 44.082031 Z M 56.25 44.082031 "/>
<path style=" stroke:none;fill-rule:nonzero;fill:rgb(20%,20%,20%);fill-opacity:1;" d="M 2.574219 5.402344 L 57.4375 5.402344 L 57.4375 41.507812 L 2.574219 41.507812 Z M 2.574219 5.402344 "/>
<path style=" stroke:none;fill-rule:nonzero;fill:rgb(100%,100%,100%);fill-opacity:1;" d="M 33.148438 10.15625 L 43.640625 10.15625 L 43.640625 11.65625 L 33.148438 11.65625 Z M 33.148438 10.15625 "/>
<path style=" stroke:none;fill-rule:nonzero;fill:rgb(4.313725%,64.313725%,87.843137%);fill-opacity:1;" d="M 35.246094 14.355469 L 43.640625 14.355469 L 43.640625 15.851562 L 35.246094 15.851562 Z M 35.246094 14.355469 "/>
<path style=" stroke:none;fill-rule:nonzero;fill:rgb(78.431373%,78.431373%,78.431373%);fill-opacity:1;" d="M 24.75 10.15625 L 28.949219 10.15625 L 28.949219 11.65625 L 24.75 11.65625 Z M 24.75 10.15625 "/>
<path style=" stroke:none;fill-rule:nonzero;fill:rgb(4.313725%,64.313725%,87.843137%);fill-opacity:1;" d="M 26.851562 14.355469 L 31.046875 14.355469 L 31.046875 15.851562 L 26.851562 15.851562 Z M 26.851562 14.355469 "/>
<path style=" stroke:none;fill-rule:nonzero;fill:rgb(100%,100%,100%);fill-opacity:1;" d="M 44.691406 27.347656 L 48.890625 27.347656 L 48.890625 28.84375 L 44.691406 28.84375 Z M 44.691406 27.347656 "/>
<path style=" stroke:none;fill-rule:nonzero;fill:rgb(4.313725%,64.313725%,87.843137%);fill-opacity:1;" d="M 34.199219 27.347656 L 38.394531 27.347656 L 38.394531 28.84375 L 34.199219 28.84375 Z M 34.199219 27.347656 "/>
<path style=" stroke:none;fill-rule:nonzero;fill:rgb(100%,100%,100%);fill-opacity:1;" d="M 24.75 31.152344 L 31.046875 31.152344 L 31.046875 32.652344 L 24.75 32.652344 Z M 24.75 31.152344 "/>
<path style=" stroke:none;fill-rule:nonzero;fill:rgb(78.431373%,78.431373%,78.431373%);fill-opacity:1;" d="M 49.945312 10.15625 L 54.144531 10.15625 L 54.144531 11.65625 L 49.945312 11.65625 Z M 49.945312 10.15625 "/>
<path style=" stroke:none;fill-rule:nonzero;fill:rgb(4.313725%,64.313725%,87.843137%);fill-opacity:1;" d="M 10.058594 22.75 L 18.457031 22.75 L 18.457031 24.246094 L 10.058594 24.246094 Z M 10.058594 22.75 "/>
<path style=" stroke:none;fill-rule:nonzero;fill:rgb(100%,100%,100%);fill-opacity:1;" d="M 22.652344 22.75 L 31.050781 22.75 L 31.050781 24.246094 L 22.652344 24.246094 Z M 22.652344 22.75 "/>
<path style=" stroke:none;fill-rule:nonzero;fill:rgb(4.313725%,64.313725%,87.843137%);fill-opacity:1;" d="M 33.148438 22.75 L 41.542969 22.75 L 41.542969 24.246094 L 33.148438 24.246094 Z M 33.148438 22.75 "/>
<path style=" stroke:none;fill-rule:nonzero;fill:rgb(4.313725%,64.313725%,87.843137%);fill-opacity:1;" d="M 10.058594 31.152344 L 18.457031 31.152344 L 18.457031 32.652344 L 10.058594 32.652344 Z M 10.058594 31.152344 "/>
<path style=" stroke:none;fill-rule:nonzero;fill:rgb(100%,100%,100%);fill-opacity:1;" d="M 39.457031 31.152344 L 45.75 31.152344 L 45.75 32.652344 L 39.457031 32.652344 Z M 39.457031 31.152344 "/>
<path style=" stroke:none;fill-rule:nonzero;fill:rgb(100%,100%,100%);fill-opacity:1;" d="M 45.742188 22.75 L 54.136719 22.75 L 54.136719 24.246094 L 45.742188 24.246094 Z M 45.742188 22.75 "/>
<path style=" stroke:none;fill-rule:nonzero;fill:rgb(78.431373%,78.431373%,78.431373%);fill-opacity:1;" d="M 12.4375 27.347656 L 20.332031 27.347656 L 20.332031 28.84375 L 12.4375 28.84375 Z M 12.4375 27.347656 "/>
<path style=" stroke:none;fill-rule:nonzero;fill:rgb(100%,100%,100%);fill-opacity:1;" d="M 10.058594 35.34375 L 31.050781 35.34375 L 31.050781 36.839844 L 10.058594 36.839844 Z M 10.058594 35.34375 "/>
<path style=" stroke:none;fill-rule:nonzero;fill:rgb(4.313725%,64.313725%,87.843137%);fill-opacity:1;" d="M 37.347656 35.34375 L 45.742188 35.34375 L 45.742188 36.839844 L 37.347656 36.839844 Z M 37.347656 35.34375 "/>
<path style=" stroke:none;fill-rule:nonzero;fill:rgb(4.313725%,64.313725%,87.843137%);fill-opacity:1;" d="M 10.058594 18.550781 L 22.652344 18.550781 L 22.652344 20.050781 L 10.058594 20.050781 Z M 10.058594 18.550781 "/>
<path style=" stroke:none;fill-rule:nonzero;fill:rgb(4.313725%,64.313725%,87.843137%);fill-opacity:1;" d="M 7.960938 10.15625 L 20.554688 10.15625 L 20.554688 11.65625 L 7.960938 11.65625 Z M 7.960938 10.15625 "/>
<path style=" stroke:none;fill-rule:nonzero;fill:rgb(78.431373%,78.431373%,78.431373%);fill-opacity:1;" d="M 5.859375 14.355469 L 18.457031 14.355469 L 18.457031 15.851562 L 5.859375 15.851562 Z M 5.859375 14.355469 "/>
</g>
</svg>
